<?xml version="1.0" encoding="utf-8"?>
<!-- Generator: Adobe Illustrator 19.0.0, SVG Export Plug-In . SVG Version: 6.00 Build 0)  -->
<svg version="1.1" xmlns="http://www.w3.org/2000/svg" xmlns:xlink="http://www.w3.org/1999/xlink" x="0px" y="0px"
	 viewBox="0 0 500 500" enable-background="new 0 0 500 500" xml:space="preserve">
<g id="Layer_1">
	<linearGradient id="XMLID_2_" gradientUnits="userSpaceOnUse" x1="29.465" y1="41.6734" x2="467.5597" y2="455.4609">
		<stop  offset="0" style="stop-color:#6BCFBC"/>
		<stop  offset="0.2518" style="stop-color:#6CC6BB"/>
		<stop  offset="0.6689" style="stop-color:#6FACB8"/>
		<stop  offset="0.9944" style="stop-color:#7294B6"/>
	</linearGradient>
	<path id="XMLID_19_" fill="url(#XMLID_2_)" d="M486,83c0-38.7-31.3-70-70-70H83c-38.7,0-70,31.3-70,70v333c0,38.7,31.3,70,70,70
		h333c38.7,0,70-31.3,70-70V83z M345.6,360c-1.5,1.4-3.7,2-6.3,2h-43.2c-2.1,0-3.9-0.7-5.6-2.2c-1.7-1.5-2.4-3.4-2.4-5.7v-75.8
		c0-3.2-1.1-5.5-3.2-6.9c-2-1.4-4.3-2.1-6.6-2.1c-1.5,0-2.6,0.1-3.2,0.3c-10.5,3-21,5-31.5,5.9s-19.9,1.4-28,1.4
		c-4.3,0-7.9,0-10.9-0.2c-3-0.1-5.3-0.3-7-0.5c4.3,0.6,8.1,2.6,10.9,5.8s4.5,6.8,4.5,10.9v61.1c0,2.6-1,4.5-2.5,5.9
		c-1.5,1.4-3.7,2-6.3,2h-43.5c-2.4,0-4.1-0.7-5.6-2.2c-1.5-1.5-2.1-3.4-2.1-5.7V166.9c0-7.9,2.6-14.5,8.2-19.9
		c5.5-5.3,11.9-8,19.4-8h23.7c2.3,0,4.5,0.8,6.1,2.4c1.6,1.6,2.6,3.6,2.6,5.9v74.2c0,3.6,1.1,6.1,3.6,7.5c2.6,1.4,4.5,2.1,6,2.1
		c13.2,0,24.2-1,33.1-2.9c8.8-1.9,17.4-4.7,25.7-8.3c1.7-0.9,3.3-2,4.6-3.5c1.3-1.5,2-3.4,2-5.8v-43.8c0-4.3,0.7-8.1,2.3-11.5
		c1.6-3.4,3.7-6.3,6.3-8.6c2.7-2.3,5.6-4.2,8.9-5.6c3.3-1.4,6.6-2.1,10.1-2.1h23.7c2.3,0,4.5,0.8,6.1,2.4s2.6,3.6,2.6,5.9v206.7
		C348,356.6,347.1,358.6,345.6,360z"/>
</g>
<g id="Layer_2">
</g>
</svg>
