<?xml version="1.0" encoding="utf-8"?>
<!-- Generator: Adobe Illustrator 19.0.0, SVG Export Plug-In . SVG Version: 6.00 Build 0)  -->
<svg version="1.1" id="Layer_1" xmlns="http://www.w3.org/2000/svg" xmlns:xlink="http://www.w3.org/1999/xlink" x="0px" y="0px"
	 viewBox="0 0 2211.2 288" enable-background="new 0 0 2211.2 288" xml:space="preserve">
<g id="XMLID_1_">
	<g id="XMLID_4_">
		<linearGradient id="XMLID_66_" gradientUnits="userSpaceOnUse" x1="50.0741" y1="-42.4909" x2="1212.516" y2="64.0038">
			<stop  offset="0" style="stop-color:#6BCFBC"/>
			<stop  offset="0.2518" style="stop-color:#6CC6BB"/>
			<stop  offset="0.6689" style="stop-color:#6FACB8"/>
			<stop  offset="0.9944" style="stop-color:#7294B6"/>
		</linearGradient>
		<rect id="XMLID_2_" x="1037" y="23.2" display="none" fill="url(#XMLID_66_)" width="82.3" height="57"/>
		<linearGradient id="XMLID_67_" gradientUnits="userSpaceOnUse" x1="4.4391" y1="58.2563" x2="1226.1617" y2="170.1819">
			<stop  offset="0" style="stop-color:#6BCFBC"/>
			<stop  offset="0.2518" style="stop-color:#6CC6BB"/>
			<stop  offset="0.6689" style="stop-color:#6FACB8"/>
			<stop  offset="0.9944" style="stop-color:#7294B6"/>
		</linearGradient>
		<path id="XMLID_19_" fill="url(#XMLID_67_)" d="M941.3,23.2H785.6c-3.7,0-7.4,0.8-11,2.2c-3.6,1.4-6.9,3.5-9.8,6.2
			c-2.9,2.7-5.2,5.9-6.9,9.7c-1.8,3.7-2.5,7.9-2.5,12.3v17.9c0,2.6,0.8,4.7,2.7,6.3c1.9,1.6,3.9,2.5,6.2,2.5H815
			c2.8,0,5.2,0.9,7.3,2.8c2.1,1.9,3.1,4.4,3.1,7.7v168c0,2.6,1,4.6,2.9,6c1.6,1.6,3.8,2.5,6.4,2.5h48.6c2.6,0,4.7-0.9,6.3-2.5
			c1.9-1.4,2.8-3.4,2.8-6V98.4c0-4.7-2-8.9-6.1-12.6c-4.1-3.7-8.7-5.6-13.8-5.6h68.9l124.5-0.3l7-56.8H941.3z"/>
		<linearGradient id="XMLID_68_" gradientUnits="userSpaceOnUse" x1="46.4157" y1="-2.5576" x2="1208.8577" y2="103.937">
			<stop  offset="0" style="stop-color:#6BCFBC"/>
			<stop  offset="0.2518" style="stop-color:#6CC6BB"/>
			<stop  offset="0.6689" style="stop-color:#6FACB8"/>
			<stop  offset="0.9944" style="stop-color:#7294B6"/>
		</linearGradient>
		<path id="XMLID_3_" fill="url(#XMLID_68_)" d="M1069.3,23.2h50v143.9h-10.5c-21.8,0-39.5-17.7-39.5-39.5V23.2z"/>
		<linearGradient id="XMLID_69_" gradientUnits="userSpaceOnUse" x1="33.6449" y1="136.8418" x2="1196.0868" y2="243.3365">
			<stop  offset="0" style="stop-color:#6BCFBC"/>
			<stop  offset="0.2518" style="stop-color:#6CC6BB"/>
			<stop  offset="0.6689" style="stop-color:#6FACB8"/>
			<stop  offset="0.9944" style="stop-color:#7294B6"/>
		</linearGradient>
		<path id="XMLID_5_" fill="url(#XMLID_69_)" d="M233.3,24.2h-25.9c-3.7,0-7.4,0.7-11,2.1c-3.6,1.4-6.9,3.4-9.8,6.1
			c-2.9,2.7-5.1,5.9-6.8,9.6c-1.8,3.7-2.4,7.9-2.4,12.6v48c0,2.6-0.9,4.7-2.3,6.3c-1.4,1.6-3.1,2.9-5,3.9c-9.1,4-18.5,6.9-28.2,8.9
			c-9.7,2-21.8,3.1-36.2,3.3c-1.6,0-4-0.8-6.8-2.3c-2.8-1.5-4.4-4.3-4.4-8.2V33.3c0-6.1-2.7-9.1-8.7-9.1H59.7
			c-8.2,0-15.2,2.9-21.3,8.7c-6.1,5.8-9.1,13.1-9.1,21.7v204.8c0,2.6,0.8,4.7,2.4,6.3c1.6,1.6,3.7,2.5,6.3,2.5h47.6
			c2.8,0,4.8-0.8,6.5-2.3c1.6-1.5,2.3-3.7,2.3-6.5v-66.9c0-4.7-1.4-8.7-4.5-12.1c-3.1-3.4-7-5.4-11.6-6.1c1.9,0,4.5,0.1,7.7,0.2
			c3.3,0.1,7.3,0.2,11.9,0.2c8.9,0,19.1-0.5,30.6-1.4c11.5-0.9,23-3,34.5-6.3c1.4-0.5,2.6-0.7,3.5-0.7c2.6,0,5.1,0.8,7.4,2.5
			c2.2,1.6,3.5,4.2,3.5,7.7v83c0,2.6,0.7,4.7,2.6,6.3c1.9,1.6,3.8,2.5,6.1,2.5h47.3c2.8,0,5-0.8,6.6-2.3c1.6-1.5,2.4-3.7,2.4-6.5
			V33.3C242.3,27.2,239.3,24.2,233.3,24.2z"/>
		<linearGradient id="XMLID_70_" gradientUnits="userSpaceOnUse" x1="35.7944" y1="113.3794" x2="1198.2363" y2="219.8741">
			<stop  offset="0" style="stop-color:#6BCFBC"/>
			<stop  offset="0.2518" style="stop-color:#6CC6BB"/>
			<stop  offset="0.6689" style="stop-color:#6FACB8"/>
			<stop  offset="0.9944" style="stop-color:#7294B6"/>
		</linearGradient>
		<path id="XMLID_17_" fill="url(#XMLID_70_)" d="M469.7,45c-19.5-16.7-45.4-25-77.9-25c-32.7,0-58.7,8.3-78.2,25
			c-19.5,16.7-29.7,40.4-30.6,71.2c-0.2,6.8-0.4,16.9-0.4,30.5c0,13.5,0.1,23.6,0.4,30.1c1.2,31.3,11.3,55,30.4,71
			c19.1,16.1,45.3,24.2,78.4,24.2c33.1,0,59.2-8,78.2-24.2c19-16.1,29.1-39.8,30.3-71c0.5-13.1,0.7-23.1,0.7-30.1
			c0-6.8-0.2-16.9-0.7-30.5C499.4,85.4,489.2,61.7,469.7,45z M432.4,174.7c-0.5,15.2-4.3,26.4-11.5,33.8c-7.2,7.4-16.9,11-29.1,11
			c-12.4,0-22.2-3.7-29.4-11c-7.2-7.3-11.1-18.6-11.5-33.8c-0.2-6.8-0.4-16.5-0.4-29.1c0-12.4,0.1-21.8,0.4-28.4
			c0.5-15.2,4.3-26.4,11.5-33.8c7.2-7.4,17-11,29.4-11c12.1,0,21.8,3.7,29.1,11c7.2,7.4,11.1,18.6,11.5,33.8
			c0.5,13.1,0.7,22.5,0.7,28.4C433.1,151.5,432.9,161.1,432.4,174.7z"/>
		<linearGradient id="XMLID_71_" gradientUnits="userSpaceOnUse" x1="37.7889" y1="91.609" x2="1200.2307" y2="198.1037">
			<stop  offset="0" style="stop-color:#6BCFBC"/>
			<stop  offset="0.2518" style="stop-color:#6CC6BB"/>
			<stop  offset="0.6689" style="stop-color:#6FACB8"/>
			<stop  offset="0.9944" style="stop-color:#7294B6"/>
		</linearGradient>
		<path id="XMLID_18_" fill="url(#XMLID_71_)" d="M711,140.7c-8.4-5.4-18-9.5-28.9-12.4c-10.9-2.9-21.8-5.4-32.7-7.5
			c-19.1-4-32.2-7.8-39.2-11.5c-7-4-10.5-9.2-10.5-15.8c0-4.2,0.9-7.6,2.8-10.3c1.9-2.7,4.3-4.8,7.4-6.5c3-1.6,6.4-2.7,10-3.2
			c3.6-0.5,7.2-0.7,10.7-0.7c8.2,0,15.4,1.6,21.7,4.9c5.8,3.5,9.4,7.5,10.8,12.4c2.8,4.2,6.7,6.1,11.6,6.1h49c1.9,0,3.6-0.6,5.1-2.2
			c1.5-1.6,2.3-3.3,2.3-5.1c-0.7-10.5-5-20.8-13-31.1c-4.9-6.8-10.7-12.5-17.5-17.3c-6.8-4.8-14.1-8.6-21.9-11.5
			c-7.8-2.9-15.9-5-24.1-6.3c-8.3-1.3-16.3-1.9-24-1.9c-19.4,0-36.5,3-51.5,9.1c-13.8,5.8-24.9,14.3-33.4,25.4
			c-8.5,11.1-12.8,24.3-12.8,39.7c0,12.4,2.4,22.8,7.2,31.3c4.8,8.5,11.1,15.6,18.9,21.2c7.8,5.6,16.7,10.1,26.8,13.5
			c10,3.4,20.4,6.1,31.1,8.2c7.2,1.4,13.6,2.7,19.1,4c5.5,1.3,10.2,2.6,14.2,4c5.1,1.6,10,3.9,14.7,6.7c4.7,2.8,7,7.3,7,13.7
			c0,4.7-1.4,8.5-4.2,11.4c-2.8,2.9-6.1,5.1-10,6.6c-3.9,1.5-8,2.5-12.6,3c-4.5,0.5-8.6,0.7-12.1,0.7c-7.9,0-15.6-1.3-22.9-4
			c-7.4-2.7-12.9-7.8-16.6-15.2c-2.3-2.3-4.3-4-5.9-4.9c-0.9-0.5-1.9-1-3-1.2c-1.1-0.2-2.3-0.5-3.7-0.5h-46.5
			c-2.1,0-3.9,0.9-5.4,2.3c-1.5,1.4-2.3,3.2-2.3,5.3c0.7,13.3,4.5,24.5,11.4,33.5c6.9,9,15.5,16.2,25.7,21.7
			c10.3,5.5,21.5,9.4,33.8,11.7c12.3,2.3,24.1,3.5,35.5,3.5c11.9,0,24.1-1.3,36.8-4c12.6-2.7,24-7.1,34.3-13.1
			c10.3-6.1,18.7-14,25.4-23.8s10-21.8,10-36c0-13.3-2.6-24.2-7.9-32.7C726.2,153,719.4,146.1,711,140.7z"/>
		<path id="_x32_nd_O" fill="#7BB7D6" d="M1172.2,45.2c-19.5-16.7-45.4-25-77.9-25c-32.7,0-58.7,8.3-78.2,25
			c-19.5,16.7-29.7,40.4-30.6,71.2c-0.2,6.8-0.4,16.9-0.4,30.5c0,13.5,0.1,23.6,0.4,30.1c1.2,31.3,11.3,55,30.4,71
			c19.1,16.1,45.3,24.2,78.4,24.2c33.1,0,59.2-8,78.2-24.2c19-16.1,29.1-39.8,30.3-71c0.5-13.1,0.7-23.1,0.7-30.1
			c0-6.8-0.2-16.9-0.7-30.5C1201.9,85.6,1191.7,61.9,1172.2,45.2z M1134.9,174.9c-0.5,15.2-4.3,26.4-11.5,33.8
			c-7.2,7.4-16.9,11-29.1,11c-12.4,0-22.2-3.7-29.4-11c-7.2-7.3-11.1-18.6-11.5-33.8c-0.2-6.8-0.4-16.5-0.4-29.1
			c0-12.4,0.1-21.8,0.4-28.4c0.5-15.2,4.3-26.4,11.5-33.8c7.2-7.4,17-11,29.4-11c12.1,0,21.8,3.7,29.1,11
			c7.2,7.4,11.1,18.6,11.5,33.8c0.5,13.1,0.7,22.5,0.7,28.4C1135.6,151.7,1135.4,161.4,1134.9,174.9z"/>
		<linearGradient id="XMLID_72_" gradientUnits="userSpaceOnUse" x1="41.8559" y1="47.2152" x2="1204.2977" y2="153.7099">
			<stop  offset="0" style="stop-color:#6BCFBC"/>
			<stop  offset="0.2518" style="stop-color:#6CC6BB"/>
			<stop  offset="0.6689" style="stop-color:#6FACB8"/>
			<stop  offset="0.9944" style="stop-color:#7294B6"/>
		</linearGradient>
		<path id="XMLID_9_" fill="url(#XMLID_72_)" d="M1163.3,118.2h-94v33c0,13.3,10.7,24,24,24h70V118.2z"/>
		<linearGradient id="XMLID_73_" gradientUnits="userSpaceOnUse" x1="42.1308" y1="44.2144" x2="1204.5726" y2="150.7091">
			<stop  offset="0" style="stop-color:#6BCFBC"/>
			<stop  offset="0.2518" style="stop-color:#6CC6BB"/>
			<stop  offset="0.6689" style="stop-color:#6FACB8"/>
			<stop  offset="0.9944" style="stop-color:#7294B6"/>
		</linearGradient>
		<polygon id="XMLID_10_" fill="url(#XMLID_73_)" points="1158.5,189.8 1158.6,103.2 1212.3,146.7 		"/>
	</g>
</g>
<g id="XMLID_55_">
	<path id="XMLID_56_" fill="#4E4540" d="M1237.8,176.2c-0.2-3.3-0.4-7.4-0.4-12.4c0-5,0-11,0-18c0-7.5,0-13.8,0-18.9
		c0-5.1,0.1-9.3,0.4-12.6c0.5-16.1,3.6-30.1,9.3-42c5.7-11.9,13.4-21.7,22.9-29.4c9.6-7.7,20.9-13.5,33.9-17.3
		c13.1-3.9,27.2-5.8,42.4-5.8c13.3,0,26.4,1.6,39.4,4.9c13,3.3,24.6,8.4,34.8,15.4c10.3,7,18.6,15.8,25,26.4
		c6.4,10.6,9.7,23.3,10,38c0,2.1-0.7,3.9-2.1,5.3c-1.6,1.4-3.5,2.1-5.6,2.1h-49.4c-3.5,0-6-0.7-7.5-2.1c-1.5-1.4-2.7-3.7-3.7-7
		c-3-11-7.8-18.8-14.2-23.5c-6.4-4.7-15.3-7-26.8-7c-26.4,0-40,14.6-41,43.8c-0.2,3.3-0.3,7.2-0.3,11.9c0,4.7,0,10.4,0,17.1
		c0,6.5,0,12.2,0,17.1s0.1,9,0.3,12.3c1.2,29.4,14.8,44.1,41,44.1c10.3,0,19-2.3,26.3-7c6.8-4.9,11.7-12.8,14.7-23.8
		c1.2-3.7,2.4-6.1,3.8-7c1.9-1.4,4.3-2.1,7.3-2.1h49.4c2.1,0,4,0.7,5.6,2.1c1.4,1.4,2.1,3.2,2.1,5.3c-0.2,14.9-3.6,27.8-10.2,38.5
		c-6.5,10.7-15,19.5-25.4,26.4c-10.4,6.9-22,11.9-34.8,15.1c-12.8,3.1-25.8,4.7-38.8,4.7c-15.6,0-29.9-1.9-42.9-5.6
		c-13-3.7-24.2-9.5-33.8-17.2c-9.6-7.7-17.1-17.5-22.8-29.4C1241.3,206.6,1238.3,192.5,1237.8,176.2z"/>
	<path id="XMLID_58_" fill="#4E4540" d="M1697.4,264.4c-1.4,1.4-3.2,2.1-5.3,2.1h-49c-6.8,0-11.5-3.1-14.4-9.5l-35.3-70
		c-2.1-3.7-5.3-5.6-9.5-5.6h-46.2c6.1,0,10.8,2.1,14.2,6.3c3.4,4.2,5.1,8.3,5.1,12.3v57.8c0,2.8-0.8,5-2.4,6.5
		c-1.6,1.5-3.9,2.3-6.7,2.3h-47.6c-2.6,0-4.7-0.8-6.3-2.5c-1.6-1.6-2.4-3.7-2.4-6.3V53c0-8.6,3-15.9,9.1-21.7
		c6.1-5.8,13.2-8.8,21.3-8.8h74.2c13.1,0,25.5,1.5,37.3,4.4c11.8,2.9,22.1,7.5,31,13.8c8.9,6.3,16,14.5,21.4,24.7
		c5.4,10.1,8,22.5,8,36.9c0,14.5-3,27.2-8.9,38.1c-6,11-15.3,20-28.2,27c-1.9,1.4-2.8,2.9-2.8,4.5c0,1.6,0.2,2.9,0.7,3.9l43.8,79.4
		c0.7,1.4,1,2.7,1,3.9C1699.5,260.8,1698.8,262.5,1697.4,264.4z M1626.3,102c0-9.6-2.7-16.9-8.2-21.9c-5.5-5-12.9-7.5-22.2-7.5
		h-60.2c5.6,0,10.2,2,13.7,6.1c3.5,4.1,5.3,8.3,5.3,12.8v28c0,3,1,5.6,3.1,7.7c2.1,2.1,4.7,3.1,7.7,3.1h30.5c9.3,0,16.7-2.3,22.2-7
		C1623.6,118.7,1626.3,111.6,1626.3,102z"/>
	<path id="XMLID_61_" fill="#4E4540" d="M1834.6,270.7c-33.1,0-59.3-8-78.4-24.2c-19.1-16.1-29.3-39.8-30.5-71
		c-0.2-6.5-0.4-16.6-0.4-30.1c0-13.5,0.1-23.7,0.4-30.5c0.9-30.8,11.1-54.5,30.6-71.2c19.5-16.7,45.6-25,78.2-25
		c32.4,0,58.4,8.3,77.9,25c19.5,16.7,29.7,40.4,30.6,71.2c0.5,13.5,0.7,23.7,0.7,30.5c0,7-0.2,17-0.7,30.1
		c-1.2,31.3-11.3,55-30.3,71C1893.8,262.6,1867.7,270.7,1834.6,270.7z M1834.6,218.2c12.1,0,21.8-3.7,29-11
		c7.2-7.3,11.1-18.6,11.6-33.8c0.5-13.5,0.7-23.2,0.7-29.1c0-5.8-0.2-15.3-0.7-28.4c-0.5-15.2-4.3-26.4-11.6-33.8
		c-7.2-7.4-16.9-11-29-11c-12.4,0-22.2,3.7-29.4,11c-7.2,7.4-11.1,18.6-11.6,33.8c-0.2,6.5-0.3,16-0.3,28.4
		c0,12.6,0.1,22.3,0.3,29.1c0.5,15.2,4.3,26.4,11.6,33.8C1812.4,214.5,1822.2,218.2,1834.6,218.2z"/>
	<path id="XMLID_64_" fill="#4E4540" d="M1984,257.4V52.6c0-8.2,2.9-15.3,8.8-21.4c5.8-6.1,13.1-9.1,21.7-9.1h11.2
		c2.8,0,6,0.5,9.5,1.6c3.5,1,7.1,4.1,10.8,9.3c13.8,21.5,26.1,40.8,37.1,58.1c6.8,10.5,12.1,18.8,15.9,25
		c3.8,6.2,7.5,11.9,10.8,17.1c3.4,5.3,6.2,9.7,8.6,13.5c2.3,3.7,3.7,5.9,4.2,6.6c0.5,0.5,1,0.7,1.8,0.7c1.2,0,1.8-0.6,1.8-1.8V52.6
		c0-4.7,0.9-8.9,2.6-12.6c1.8-3.7,4-6.9,6.8-9.5c2.8-2.6,6.1-4.6,9.8-6.1c3.7-1.5,7.5-2.3,11.2-2.3h22.8c2.6,0,4.5,0.8,6,2.5
		c1.6,1.6,2.4,3.8,2.4,6.6V257c0,2.6-0.8,4.7-2.4,6.3c-1.4,1.9-3.4,2.8-6,2.8h-39.5c-5.6,0-9.6-2.2-11.9-6.7
		c-14-21.5-26.6-40.7-37.8-57.8c-7-10.3-12.5-18.5-16.5-24.7c-4-6.2-7.6-11.9-11-17.2c-3.4-5.3-6.2-9.7-8.6-13.3
		c-2.3-3.6-3.7-5.8-4.2-6.5c-0.7-0.7-1.3-1.1-1.8-1.1c-1.4,0-2.1,0.6-2.1,1.8v116.6c0,2.8-0.8,5-2.4,6.5c-1.6,1.5-3.9,2.3-6.7,2.3
		h-44.1c-2.3,0-4.4-0.9-6.1-2.6S1984,259.7,1984,257.4z"/>
</g>
</svg>
